<?xml version="1.0" standalone="no"?>
<!DOCTYPE svg PUBLIC "-//W3C//DTD SVG 20010904//EN"
 "http://www.w3.org/TR/2001/REC-SVG-20010904/DTD/svg10.dtd">
<svg version="1.0" xmlns="http://www.w3.org/2000/svg"
 width="280.000000pt" height="280.000000pt" viewBox="0 0 280.000000 280.000000"
 preserveAspectRatio="xMidYMid meet">

<g transform="translate(0.000000,280.000000) scale(0.100000,-0.100000)"
fill="#000000" stroke="none">
<path d="M1288 2717 c-79 -23 -144 -80 -183 -162 -45 -98 -53 -83 130 -265
l165 -165 165 165 166 166 -33 64 c-37 75 -106 148 -169 181 -54 27 -171 35
-241 16z"/>
<path d="M620 2441 c-84 -27 -195 -124 -238 -206 -38 -72 -37 -167 2 -252 l29
-63 391 0 392 0 37 38 c20 21 37 42 37 48 0 12 -287 296 -351 347 -91 73 -225
112 -299 88z"/>
<path d="M2035 2437 c-64 -22 -106 -46 -175 -103 -77 -62 -1372 -1360 -1418
-1421 -92 -119 -113 -250 -58 -350 35 -63 124 -151 186 -184 94 -49 229 -25
343 63 61 46 1358 1341 1422 1419 79 96 110 167 110 254 -1 85 -23 134 -101
215 -96 101 -209 140 -309 107z"/>
<path d="M395 1725 c-114 -25 -175 -54 -236 -114 -47 -46 -60 -67 -74 -116
-20 -69 -16 -179 8 -238 23 -54 101 -132 155 -155 99 -41 62 -67 432 303 l335
335 -280 -1 c-193 0 -299 -5 -340 -14z"/>
<path d="M2120 1395 l-335 -335 310 0 c391 0 455 13 547 106 66 65 83 114 83
234 0 89 -3 112 -23 151 -30 62 -86 117 -147 144 -101 46 -64 71 -435 -300z"/>
<path d="M1567 842 c-20 -21 -37 -42 -37 -48 0 -12 285 -293 351 -347 114 -92
252 -119 349 -68 62 33 157 127 188 186 38 72 37 167 -2 253 l-29 62 -391 0
-392 0 -37 -38z"/>
<path d="M1232 507 l-163 -163 33 -64 c37 -74 105 -147 169 -182 38 -20 58
-23 139 -22 111 0 147 13 215 75 50 46 76 89 94 154 l11 40 -163 163 c-89 89
-164 162 -167 162 -3 0 -78 -73 -168 -163z"/>
</g>
</svg>
